<?xml version="1.0" encoding="utf-8"?>
<svg version="1.1" xmlns="http://www.w3.org/2000/svg" xmlns:xlink="http://www.w3.org/1999/xlink" x="0px" y="0px"
	 viewBox="0 0 749 256.5"  xml:space="preserve" fill="currentColor">
<style>
    path {
        fill: #000;
		stroke: #FFF;
		stroke-width: 2px;
    }
</style>
<path d="M191.8,64.1c-5.3-5.3-12.3-8.2-19.8-8.2s-14.5,2.9-19.8,8.2S144,76.4,144,83.9s2.9,14.5,8.2,19.8s12.3,8.2,19.8,8.2
	s14.5-2.9,19.8-8.2c5.3-5.3,8.2-12.3,8.2-19.8S197.1,69.4,191.8,64.1z M180.7,92.6c-2.3,2.3-5.4,3.6-8.7,3.6s-6.4-1.3-8.7-3.6
	c-4.8-4.8-4.8-12.6,0-17.3l0,0c2.3-2.3,5.4-3.6,8.7-3.6s6.4,1.3,8.7,3.6C185.5,80,185.5,87.8,180.7,92.6z M83.7,136.9
	c-5.3-5.3-12.3-8.2-19.8-8.2s-14.5,2.9-19.8,8.2s-8.2,12.3-8.2,19.8s2.9,14.5,8.2,19.8s12.3,8.2,19.8,8.2s14.5-2.9,19.8-8.2
	C94.6,165.5,94.6,147.8,83.7,136.9z M72.6,165.3c-2.3,2.3-5.4,3.6-8.7,3.6s-6.4-1.3-8.7-3.6c-4.8-4.8-4.8-12.6,0-17.3l0,0
	c2.3-2.3,5.4-3.6,8.7-3.6s6.4,1.3,8.7,3.6C77.4,152.8,77.4,160.5,72.6,165.3z M113.3,40l-13.8-8l18.2-32l13.8,8L113.3,40z
	 M133.1,128.8l-14-24.2c0.3-0.3,0.7-0.6,1-1c10.9-10.9,10.9-28.7,0-39.6s-28.7-10.9-39.6,0c-3.3,3.3-5.7,7.4-7,11.8H54.8
	c-1.3-4.3-3.6-8.4-7-11.8C36.9,53.1,19.1,53.1,8.2,64C2.9,69.4,0,76.4,0,83.9s2.9,14.5,8.2,19.8c5.5,5.5,12.6,8.2,19.8,8.2
	s14.3-2.7,19.8-8.2c3.4-3.4,5.8-7.5,7-11.8h18.6c1.3,4.4,3.7,8.5,7,11.8c5.5,5.5,12.6,8.2,19.8,8.2c1.4,0,2.9-0.1,4.3-0.3l13.7,23.6
	c-0.6,0.5-1.3,1.1-1.9,1.7c-5.3,5.3-8.2,12.3-8.2,19.8s2.9,14.5,8.2,19.8c0.3,0.3,0.5,0.5,0.8,0.8l-13.6,23.5
	c-8.2-1-16.8,1.7-23.1,8c-10.9,10.9-10.9,28.7,0,39.6c5.5,5.5,12.6,8.2,19.8,8.2s14.3-2.7,19.8-8.2c10.9-10.9,10.9-28.7,0-39.6
	c-0.6-0.6-1.1-1.1-1.7-1.6l13.2-22.9c1.5,0.3,3.1,0.4,4.6,0.4c7.2,0,14.3-2.7,19.8-8.2c10.9-10.9,10.9-28.7,0-39.6
	C149.7,130.6,141.2,127.9,133.1,128.8z M36.7,92.6c-4.8,4.8-12.6,4.8-17.4,0s-4.8-12.6,0-17.4c2.4-2.4,5.5-3.6,8.7-3.6
	c3.1,0,6.3,1.2,8.7,3.6C41.5,80,41.5,87.8,36.7,92.6z M144.9,165.3c-4.8,4.8-12.6,4.8-17.4,0c-4.8-4.8-4.8-12.6,0-17.4
	c2.4-2.4,5.5-3.6,8.7-3.6c3.1,0,6.3,1.2,8.7,3.6C149.7,152.8,149.7,160.5,144.9,165.3z"/>
<g>
	<path d="M305.1,149.1c0,2.4-0.4,4.7-1.3,6.8c-0.9,2.1-2.1,3.9-3.7,5.3c-1.6,1.5-3.5,2.6-5.6,3.5c-2.1,0.8-4.4,1.2-6.7,1.2h-28.5
		l-1.9-1.9v-50.9l1.9-1.9h27.2c2.2,0,4.3,0.4,6.3,1.3c2,0.9,3.7,2,5.1,3.5c1.5,1.5,2.6,3.2,3.5,5.1c0.9,2,1.3,4,1.3,6.3
		c0,1.9-0.4,3.6-1.2,5.4c-0.8,1.7-1.9,3.2-3.4,4.5c2,1.3,3.7,2.9,5,5C304.5,144.4,305.1,146.6,305.1,149.1z M290.1,128
		c0-1.5-0.5-2.8-1.6-3.9c-1.1-1.2-2.4-1.7-3.9-1.7h-14.6v11.1h14.6c1.5,0,2.8-0.5,3.9-1.6C289.5,130.8,290.1,129.5,290.1,128z
		 M292.2,148.9c0-1.5-0.5-2.7-1.6-3.6c-1.1-1-2.3-1.4-3.7-1.4h-16.9v10.5H287c1.5,0,2.7-0.5,3.7-1.6
		C291.7,151.6,292.2,150.3,292.2,148.9z"/>
	<path d="M377.6,130c0,3.8-1.1,7.3-3.2,10.4c-2.1,3.1-4.8,5.4-8.2,6.9l10.6,10.5v6.2l-1.9,1.9h-6.8l-16.6-17h-6.6V164l-1.9,1.9h-8.7
		l-1.9-1.9v-50.9l1.9-1.9h24.5c2.6,0,5,0.5,7.3,1.5c2.3,1,4.3,2.3,6,4c1.7,1.7,3.1,3.7,4.1,6C377.1,125,377.6,127.5,377.6,130z
		 M365,130c0-2-0.7-3.7-2.1-5.1c-1.4-1.4-3.1-2.2-5.1-2.2h-13v14.8h13c2,0,3.7-0.7,5.1-2.2C364.3,133.8,365,132.1,365,130z"/>
	<path d="M450.4,164l-1.9,1.9h-8.7l-1.9-1.9v-10.7h-19.4V164l-1.9,1.9h-8.7l-1.9-1.9v-33.5l19.3-19.3h6l19.3,19.3V164z M437.8,142.3
		v-7.7l-9.7-9.7l-9.7,9.7v7.7H437.8z"/>
	<path d="M527.2,164l-1.9,1.9h-8.4L515,164v-33.6l-10.7,11.2h-4.6l-10.7-11.2V164l-1.9,1.9h-8.4l-1.9-1.9v-50.9l1.9-1.9h6.9
		l16.3,16.6l16.3-16.6h6.9l1.9,1.9V164z"/>
	<path d="M600.8,149.1c0,2.4-0.4,4.7-1.3,6.8c-0.9,2.1-2.1,3.9-3.7,5.3c-1.6,1.5-3.5,2.6-5.6,3.5c-2.1,0.8-4.4,1.2-6.7,1.2h-28.5
		L553,164v-50.9l1.9-1.9h27.2c2.2,0,4.3,0.4,6.3,1.3c2,0.9,3.7,2,5.1,3.5c1.5,1.5,2.6,3.2,3.5,5.1c0.9,2,1.3,4,1.3,6.3
		c0,1.9-0.4,3.6-1.2,5.4c-0.8,1.7-1.9,3.2-3.4,4.5c2,1.3,3.7,2.9,5,5C600.1,144.4,600.8,146.6,600.8,149.1z M585.7,128
		c0-1.5-0.5-2.8-1.6-3.9c-1.1-1.2-2.4-1.7-3.9-1.7h-14.6v11.1h14.6c1.5,0,2.8-0.5,3.9-1.6C585.2,130.8,585.7,129.5,585.7,128z
		 M587.8,148.9c0-1.5-0.5-2.7-1.6-3.6c-1.1-1-2.3-1.4-3.7-1.4h-16.9v10.5h17.1c1.5,0,2.7-0.5,3.7-1.6
		C587.3,151.6,587.8,150.3,587.8,148.9z"/>
	<path d="M672.1,164l-1.9,1.9H630l-1.9-1.9v-50.9l1.9-1.9h8.8l1.9,1.9v41h29.5l1.9,1.9V164z"/>
	<path d="M746.3,164l-1.9,1.9h-41.3l-1.9-1.9v-50.9l1.9-1.9h41.3l1.9,1.9v7.8l-1.9,1.9h-30.6V133h26l1.9,1.9v7.4l-1.9,1.9h-26v10.1
		h30.6l1.9,1.9V164z"/>
</g>
</svg>
