<?xml version="1.0" encoding="utf-8"?>
<!-- Generator: Adobe Illustrator 25.1.0, SVG Export Plug-In . SVG Version: 6.00 Build 0)  -->
<svg version="1.1" id="Layer_1" xmlns="http://www.w3.org/2000/svg" xmlns:xlink="http://www.w3.org/1999/xlink" x="0px" y="0px"
	 viewBox="0 0 200 256.5" style="enable-background:new 0 0 200 256.5;" xml:space="preserve">
<style type="text/css">
	.st0{fill:#FFFFFF;}
</style>
<path d="M191.8,64.1c-5.3-5.3-12.3-8.2-19.8-8.2s-14.5,2.9-19.8,8.2c-5.3,5.3-8.2,12.3-8.2,19.8s2.9,14.5,8.2,19.8
	c5.3,5.3,12.3,8.2,19.8,8.2s14.5-2.9,19.8-8.2c5.3-5.3,8.2-12.3,8.2-19.8S197.1,69.4,191.8,64.1z M180.7,92.6
	c-2.3,2.3-5.4,3.6-8.7,3.6s-6.4-1.3-8.7-3.6c-4.8-4.8-4.8-12.6,0-17.3l0,0c2.3-2.3,5.4-3.6,8.7-3.6s6.4,1.3,8.7,3.6
	C185.5,80,185.5,87.8,180.7,92.6z M83.7,136.9c-5.3-5.3-12.3-8.2-19.8-8.2c-7.5,0-14.5,2.9-19.8,8.2c-5.3,5.3-8.2,12.3-8.2,19.8
	s2.9,14.5,8.2,19.8c5.3,5.3,12.3,8.2,19.8,8.2c7.5,0,14.5-2.9,19.8-8.2C94.6,165.5,94.6,147.8,83.7,136.9z M72.6,165.3
	c-2.3,2.3-5.4,3.6-8.7,3.6c-3.3,0-6.4-1.3-8.7-3.6c-4.8-4.8-4.8-12.6,0-17.3l0,0c2.3-2.3,5.4-3.6,8.7-3.6c3.3,0,6.4,1.3,8.7,3.6
	C77.4,152.8,77.4,160.5,72.6,165.3z M113.3,40l-13.8-8l18.2-32l13.8,8L113.3,40z M133.1,128.8l-14-24.2c0.3-0.3,0.7-0.6,1-1
	c10.9-10.9,10.9-28.7,0-39.6c-10.9-10.9-28.7-10.9-39.6,0c-3.3,3.3-5.7,7.4-7,11.8H54.8c-1.3-4.3-3.6-8.4-7-11.8
	c-10.9-10.9-28.7-10.9-39.6,0C2.9,69.4,0,76.4,0,83.9s2.9,14.5,8.2,19.8c5.5,5.5,12.6,8.2,19.8,8.2s14.3-2.7,19.8-8.2
	c3.4-3.4,5.8-7.5,7-11.8h18.6c1.3,4.4,3.7,8.5,7,11.8c5.5,5.5,12.6,8.2,19.8,8.2c1.4,0,2.9-0.1,4.3-0.3l13.7,23.6
	c-0.6,0.5-1.3,1.1-1.9,1.7c-5.3,5.3-8.2,12.3-8.2,19.8s2.9,14.5,8.2,19.8c0.3,0.3,0.5,0.5,0.8,0.8l-13.6,23.5
	c-8.2-1-16.8,1.7-23.1,8c-10.9,10.9-10.9,28.7,0,39.6c5.5,5.5,12.6,8.2,19.8,8.2c7.2,0,14.3-2.7,19.8-8.2
	c10.9-10.9,10.9-28.7,0-39.6c-0.6-0.6-1.1-1.1-1.7-1.6l13.2-22.9c1.5,0.3,3.1,0.4,4.6,0.4c7.2,0,14.3-2.7,19.8-8.2
	c10.9-10.9,10.9-28.7,0-39.6C149.7,130.6,141.2,127.9,133.1,128.8z M36.7,92.6c-4.8,4.8-12.6,4.8-17.4,0c-4.8-4.8-4.8-12.6,0-17.4
	c2.4-2.4,5.5-3.6,8.7-3.6c3.1,0,6.3,1.2,8.7,3.6C41.5,80,41.5,87.8,36.7,92.6z M144.9,165.3c-4.8,4.8-12.6,4.8-17.4,0
	c-4.8-4.8-4.8-12.6,0-17.4c2.4-2.4,5.5-3.6,8.7-3.6c3.1,0,6.3,1.2,8.7,3.6C149.7,152.8,149.7,160.5,144.9,165.3z"/>
<path class="st0" d="M-111.2,64.4c-5.3-5.3-12.3-8.2-19.8-8.2s-14.5,2.9-19.8,8.2c-5.3,5.3-8.2,12.3-8.2,19.8s2.9,14.5,8.2,19.8
	c5.3,5.3,12.3,8.2,19.8,8.2s14.5-2.9,19.8-8.2c5.3-5.3,8.2-12.3,8.2-19.8S-105.9,69.7-111.2,64.4z M-122.3,92.9
	c-2.3,2.3-5.4,3.6-8.7,3.6s-6.4-1.3-8.7-3.6c-4.8-4.8-4.8-12.6,0-17.3l0,0c2.3-2.3,5.4-3.6,8.7-3.6s6.4,1.3,8.7,3.6
	C-117.5,80.3-117.5,88.1-122.3,92.9z M-219.3,137.2c-5.3-5.3-12.3-8.2-19.8-8.2c-7.5,0-14.5,2.9-19.8,8.2
	c-5.3,5.3-8.2,12.3-8.2,19.8s2.9,14.5,8.2,19.8c5.3,5.3,12.3,8.2,19.8,8.2c7.5,0,14.5-2.9,19.8-8.2
	C-208.4,165.9-208.4,148.1-219.3,137.2z M-230.4,165.6c-2.3,2.3-5.4,3.6-8.7,3.6c-3.3,0-6.4-1.3-8.7-3.6c-4.8-4.8-4.8-12.6,0-17.3
	l0,0c2.3-2.3,5.4-3.6,8.7-3.6c3.3,0,6.4,1.3,8.7,3.6C-225.6,153.1-225.6,160.9-230.4,165.6z M-189.7,40.3l-13.8-8l18.2-32l13.8,8
	L-189.7,40.3z M-169.9,129.2l-14-24.2c0.3-0.3,0.7-0.6,1-1c10.9-10.9,10.9-28.7,0-39.6c-10.9-10.9-28.7-10.9-39.6,0
	c-3.3,3.3-5.7,7.4-7,11.8h-18.6c-1.3-4.3-3.6-8.4-7-11.8c-10.9-10.9-28.7-10.9-39.6,0c-5.3,5.3-8.2,12.3-8.2,19.8s2.9,14.5,8.2,19.8
	c5.5,5.5,12.6,8.2,19.8,8.2s14.3-2.7,19.8-8.2c3.4-3.4,5.8-7.5,7-11.8h18.6c1.3,4.4,3.7,8.5,7,11.8c5.5,5.5,12.6,8.2,19.8,8.2
	c1.4,0,2.9-0.1,4.3-0.3l13.7,23.6c-0.6,0.5-1.3,1.1-1.9,1.7c-5.3,5.3-8.2,12.3-8.2,19.8s2.9,14.5,8.2,19.8c0.3,0.3,0.5,0.5,0.8,0.8
	l-13.6,23.5c-8.2-1-16.8,1.7-23.1,8c-10.9,10.9-10.9,28.7,0,39.6c5.5,5.5,12.6,8.2,19.8,8.2c7.2,0,14.3-2.7,19.8-8.2
	c10.9-10.9,10.9-28.7,0-39.6c-0.6-0.6-1.1-1.1-1.7-1.6l13.2-22.9c1.5,0.3,3.1,0.4,4.6,0.4c7.2,0,14.3-2.7,19.8-8.2
	c10.9-10.9,10.9-28.7,0-39.6C-153.3,130.9-161.8,128.2-169.9,129.2z M-266.3,92.9c-4.8,4.8-12.6,4.8-17.4,0
	c-4.8-4.8-4.8-12.6,0-17.4c2.4-2.4,5.5-3.6,8.7-3.6c3.1,0,6.3,1.2,8.7,3.6C-261.5,80.3-261.5,88.1-266.3,92.9z M-158.1,165.6
	c-4.8,4.8-12.6,4.8-17.4,0c-4.8-4.8-4.8-12.6,0-17.4c2.4-2.4,5.5-3.6,8.7-3.6c3.1,0,6.3,1.2,8.7,3.6
	C-153.3,153.1-153.3,160.9-158.1,165.6z"/>
</svg>
